<svg width="296" height="46" viewBox="0 0 296 46" fill="none" xmlns="http://www.w3.org/2000/svg">
<g clip-path="url(#clip0_31_4812)">
<path d="M13.7782 0L2.55509 19.4476L3.90494 18.2231C6.70107 15.7548 10.9049 12.6501 16.6129 10.2975C23.9792 7.2603 30.526 6.8457 34.4021 6.88427L0 45.7891H1.50413L52.6637 0H13.7782Z" fill="#00FF7F"/>
<path d="M58.1114 26.3318C58.0053 26.4379 57.8704 26.5536 57.745 26.6693C57.4558 26.9393 57.1569 27.2189 56.829 27.5081C54.0329 29.9861 49.8001 33.1197 44.044 35.4916C36.6776 38.5288 30.1212 38.9434 26.2452 38.9048L60.6472 0H59.1431L7.99316 45.7891H46.898L58.121 26.3318H58.1114Z" fill="#00FF7F"/>
<path d="M97.1883 45.7248H67.647V0H97.7663V8.34863H76.2525V15.0918H95.0048V23.6331H76.2525V37.2478H97.1883V45.7248ZM143.234 45.7248H134.95L114.656 15.734V45.7248H106.051V0H114.399L134.629 29.9266V0H143.234V45.7248ZM171.234 45.7248H162.629V8.47707H151.39V0H182.473V8.47707H171.234V45.7248ZM226.785 45.7248H216.638L200.39 23.3762H196.73V45.7248H188.381V0H204.757C207.84 0 210.73 1.22018 212.977 3.46789C215.225 5.7156 216.445 8.60551 216.445 11.6881C216.445 16.2477 213.748 20.3578 209.766 22.2844L226.785 45.7248ZM196.73 15.0275H204.757C206.555 15.0275 208.097 13.5505 208.097 11.6881C208.097 9.8257 206.555 8.34863 204.757 8.34863H196.73V15.0275ZM241.812 45.7248H233.207V0H241.812V45.7248ZM295.565 45.7891H285.097L273.216 29.156L261.271 45.7891H250.803L267.95 21.8349L252.344 0.0642202H262.877L273.216 14.4496L283.556 0.0642202H294.023L278.418 21.8349L295.565 45.7891Z" fill="#00FF7F"/>
</g>
<defs>
<clipPath id="clip0_31_4812">
<rect width="295.565" height="45.7891" fill="white"/>
</clipPath>
</defs>
</svg>
